<svg xmlns="http://www.w3.org/2000/svg" width="166.396" height="173.499" viewBox="0 0 166.396 173.499">
  <path id="Path_18740" data-name="Path 18740" d="M344.038,448.346c-4.278,8.007-24.644-.062-29.31,7.563C311.738,440.857,340.925,434.36,344.038,448.346ZM334.583,426.6c10.189-3.569,9.869,11.385,2.836,12.291C331.279,439.679,325.441,429.8,334.583,426.6Zm20.8-.944c2.1,8.932-.757,22.82,4.729,28.362C345.845,457.733,338.01,421.852,355.38,425.655Zm-43.487-15.127c14.215-1.657,19.6,20.459,11.348,29.305C308.1,439.372,321.7,415.294,311.893,410.529Zm45.381-1.892c5.017,14.455-24.663,22.37-28.362,7.563C332.561,407.873,353.464,416.8,357.273,408.636Zm44.412,93.091V484.918H406.7a4.281,4.281,0,0,1,3.3,1.109,5.381,5.381,0,0,1,1,3.65,5.479,5.479,0,0,1-1.072,3.7,4.135,4.135,0,0,1-3.279,1.221h-2.1v7.125Zm2.793-9.449h1.2a2.521,2.521,0,0,0,1.894-.579,2.8,2.8,0,0,0,.541-1.954,2.89,2.89,0,0,0-.492-1.943,2.591,2.591,0,0,0-1.9-.536h-1.245Zm-15.108-7.36h2.891v11.33a5.344,5.344,0,0,0,.437,2.632,2.068,2.068,0,0,0,3.094,0,5.732,5.732,0,0,0,.424-2.676V484.918h2.848v11.6a13.123,13.123,0,0,1-.172,2.477,3.923,3.923,0,0,1-.6,1.368,3.8,3.8,0,0,1-1.646,1.326,6.127,6.127,0,0,1-2.435.443,4.8,4.8,0,0,1-3.754-1.251q-1.091-1.247-1.09-4.363Zm-12.416,8.4a31.061,31.061,0,0,1,.235-4.272,6.526,6.526,0,0,1,.721-2.4,4.154,4.154,0,0,1,1.608-1.64,6.4,6.4,0,0,1,4.931,0,4.213,4.213,0,0,1,1.622,1.64,6.67,6.67,0,0,1,.715,2.422,39.9,39.9,0,0,1,0,8.506,6.988,6.988,0,0,1-.715,2.43,4.223,4.223,0,0,1-1.622,1.64,6.42,6.42,0,0,1-4.931,0,4.164,4.164,0,0,1-1.608-1.64,6.535,6.535,0,0,1-.721-2.4A31.163,31.163,0,0,1,376.954,493.319Zm2.953,0a17.959,17.959,0,0,0,.445,5.222A1.643,1.643,0,0,0,382,499.619a1.611,1.611,0,0,0,1.627-1.054,31.54,31.54,0,0,0-.006-10.5,1.784,1.784,0,0,0-3.273,0A18.128,18.128,0,0,0,379.907,493.319Zm-14.54,8.408V484.918h5.177a3.754,3.754,0,0,1,4.407,4.4,5.084,5.084,0,0,1-.555,2.577,2.194,2.194,0,0,1-1.627,1.109c1.368.394,2.083,1.646,2.145,3.767v.215l.08,2.231a5.859,5.859,0,0,0,.223,1.523,2.516,2.516,0,0,0,.56.986h-3.421a5.691,5.691,0,0,1-.185-1c-.043-.382-.062-.918-.08-1.621l-.036-1.756v-.45a2.752,2.752,0,0,0-.573-2,3.51,3.51,0,0,0-2.337-.548h-.986v7.377Zm2.792-9.708h1.659a2.284,2.284,0,0,0,1.75-.543,2.96,2.96,0,0,0,.488-1.954,2.343,2.343,0,0,0-.537-1.756,2.861,2.861,0,0,0-1.941-.5h-1.419Zm-7.279,9.708-.21-1.854a3.4,3.4,0,0,1-1.214,1.731,3.708,3.708,0,0,1-2.121.53,3.522,3.522,0,0,1-3.427-2c-.666-1.33-.993-3.778-.993-7.328a27.4,27.4,0,0,1,.234-3.988,6.492,6.492,0,0,1,.74-2.318,3.726,3.726,0,0,1,1.6-1.486,5.693,5.693,0,0,1,2.478-.48,4.794,4.794,0,0,1,3.68,1.275,5.7,5.7,0,0,1,1.184,3.977v.424h-2.7v-.178a4.092,4.092,0,0,0-.518-2.274,1.749,1.749,0,0,0-1.546-.772,1.713,1.713,0,0,0-1.72,1.049c-.309.7-.469,2.552-.469,5.559a16.405,16.405,0,0,0,.443,4.759,1.618,1.618,0,0,0,1.6,1.2,1.74,1.74,0,0,0,1.64-.851,6.25,6.25,0,0,0,.486-2.885v-.579h-2v-2.681h4.783v9.165Zm-22.869,0V484.918H340.9v13.95h5.214v2.859Zm-12.41,0,3.489-16.809h3.877l3.527,16.809H333.38l-.764-4.221h-3.323l-.745,4.221Zm4.142-6.743h2.46l-1.239-7.052Zm-17.832,6.743L308.9,484.918h2.99l1.892,12.741,2.028-12.741H318.2l2.231,12.993,1.646-12.993h2.959l-2.817,16.809H318.8l-1.794-10.62-1.652,10.62Zm-13.962,0V484.918h5.177a3.752,3.752,0,0,1,4.407,4.4,5.1,5.1,0,0,1-.554,2.577,2.2,2.2,0,0,1-1.635,1.109c1.376.394,2.091,1.646,2.146,3.767v.215l.087,2.231a6.118,6.118,0,0,0,.215,1.523,2.592,2.592,0,0,0,.568.986H304.94a5.684,5.684,0,0,1-.186-1c-.043-.382-.068-.918-.079-1.621l-.038-1.756v-.45a2.722,2.722,0,0,0-.579-2,3.473,3.473,0,0,0-2.331-.548h-.986v7.377Zm2.792-9.708H302.4a2.269,2.269,0,0,0,1.745-.543,2.958,2.958,0,0,0,.492-1.954,2.369,2.369,0,0,0-.536-1.756,2.867,2.867,0,0,0-1.941-.5h-1.419Zm-15.206,9.708,3.5-16.809h3.877l3.525,16.809h-3.113l-.764-4.221h-3.322l-.746,4.221Zm4.149-6.743h2.459l-1.239-7.052Zm-7.5,6.743-.216-1.854a3.368,3.368,0,0,1-1.215,1.731,3.7,3.7,0,0,1-2.119.53,3.522,3.522,0,0,1-3.427-2c-.66-1.33-.993-3.778-.993-7.328a26.393,26.393,0,0,1,.24-3.988,6.368,6.368,0,0,1,.74-2.318,3.746,3.746,0,0,1,1.6-1.486,5.7,5.7,0,0,1,2.484-.48,4.813,4.813,0,0,1,3.68,1.275,5.73,5.73,0,0,1,1.177,3.977v.424h-2.694v-.178a4.092,4.092,0,0,0-.518-2.274,1.758,1.758,0,0,0-1.548-.772,1.721,1.721,0,0,0-1.725,1.049c-.309.7-.462,2.552-.462,5.559a16.35,16.35,0,0,0,.443,4.759,1.611,1.611,0,0,0,1.6,1.2,1.73,1.73,0,0,0,1.633-.851,6.168,6.168,0,0,0,.486-2.885v-.579h-2v-2.681h4.783v9.165Zm-20.071,0,3.5-16.809h3.877l3.525,16.809H269.9l-.765-4.221h-3.322l-.746,4.221Zm4.149-6.743h2.459l-1.239-7.052Zm-10.153,15.755H416.837V474.815H256.1Zm103.053-39.7c5.368-.622,13.216,1.239,17.019-.948-4.1-1.573-4.691-6.658-8.512-8.507C366.217,466.111,361.914,467.793,359.165,471.036Zm-51.052-62.4c-7.366,5.949-14.349,18.93-9.456,34.982,4.18,13.715,24.368,26.321,42.545,24.582,9.691-.931,22.166-8.124,24.582-17.963,4.407-17.993-2.52-39.376-.948-57.67C349.734,400.914,321.91,397.492,308.113,408.636ZM408.324,468.2c-.925-7.057-8.543-2.163-7.563-9.456.481-3.981,4.691-6.348,9.321-4.95,4.9,1.487,5.387,5.141,4.745,9.907-.357,2.656-1.307,5.078-2.717,6.386.418,2.73,7.144-.84,7.563,1.892v42.545h-166.4V473.872l13.235-21.747.95,18.911h23.632c-19.2-11.027-33.255-43.328-10.4-66.184,6-6,17.3-10.757,27.418-12.285,21.292-3.23,55.207-.032,56.724-18.913,2.181-27.128-47.137-28.22-65.235-16.069,5.566,9.35,8.6,9,8.512,17.019-.271,22.629-40.11,20.9-34.038-5.678,3.014-13.191,26.58-25.31,45.381-27.412,26.209-2.934,66.69,7.335,71.855,30.254,3,13.307,0,33.342,0,51.051C391.311,442.065,385.443,479.291,408.324,468.2Z" transform="translate(-253.277 -341.026)" fill="#212760" fill-rule="evenodd"/>
</svg>
